<svg width="25" height="24" viewBox="0 0 25 24" fill="none" xmlns="http://www.w3.org/2000/svg">
<path fill-rule="evenodd" clip-rule="evenodd" d="M6.18638 4.14285L5.85476 2.78357C5.59658 1.73512 4.67153 0.999938 3.61054 1H2.5V2.57142H3.61054C3.97355 2.56065 4.29474 2.80935 4.38175 3.16856L7.12725 14.5457L7.4126 15.7164C7.67282 16.7734 8.61035 17.5109 9.67995 17.4999H20.2378V15.9285H9.67995C9.31694 15.9393 8.99574 15.6906 8.90874 15.3314L8.8162 14.9385L20.2378 12.1964C21.0822 11.9964 21.746 11.3322 21.9576 10.4757L23.5 4.14285H6.18638ZM20.4923 10.0985C20.4209 10.3855 20.1973 10.6072 19.9139 10.6721L8.46144 13.4142L6.57198 5.71427H21.5643L20.4923 10.0985ZM6.35604 20.6428C6.35604 19.341 7.39189 18.2857 8.66967 18.2857C9.94745 18.2857 10.9833 19.341 10.9833 20.6428C10.9833 21.9446 9.94745 22.9999 8.66967 22.9999C7.39189 22.9999 6.35604 21.9446 6.35604 20.6428ZM7.89846 20.6428C7.89846 21.0767 8.24374 21.4285 8.66967 21.4285C9.09559 21.4285 9.44087 21.0767 9.44087 20.6428C9.44087 20.2089 9.09559 19.8571 8.66967 19.8571C8.24374 19.8571 7.89846 20.2089 7.89846 20.6428ZM15.7867 19.7408C16.1448 18.86 16.9884 18.2857 17.9242 18.2857C19.2019 18.2857 20.2378 19.341 20.2378 20.6428C20.2378 21.5962 19.6741 22.4557 18.8096 22.8205C17.945 23.1853 16.9499 22.9837 16.2882 22.3095C15.6265 21.6354 15.4285 20.6216 15.7867 19.7408ZM17.153 20.6428C17.153 21.0767 17.4982 21.4285 17.9242 21.4285C18.3501 21.4285 18.6954 21.0767 18.6954 20.6428C18.6954 20.2089 18.3501 19.8571 17.9242 19.8571C17.4982 19.8571 17.153 20.2089 17.153 20.6428Z" fill="#2A2A2A"/>
</svg>
