<svg width="24" height="24" viewBox="0 0 24 24" fill="none" xmlns="http://www.w3.org/2000/svg">
<path fill-rule="evenodd" clip-rule="evenodd" d="M12.0004 1.99902C9.28436 1.99902 8.9435 2.0109 7.87677 2.05944C6.81212 2.1082 6.08541 2.27675 5.44953 2.52406C4.79178 2.77949 4.23383 3.12118 3.67797 3.67725C3.12168 4.23312 2.77999 4.79107 2.52373 5.44862C2.27579 6.0847 2.10703 6.81162 2.05911 7.87585C2.0114 8.94258 1.9989 9.28365 1.9989 11.9997C1.9989 14.7157 2.01099 15.0555 2.05932 16.1222C2.10828 17.1869 2.27684 17.9136 2.52393 18.5494C2.77958 19.2072 3.12126 19.7651 3.67734 20.321C4.233 20.8773 4.79095 21.2198 5.44828 21.4752C6.08457 21.7225 6.81149 21.8911 7.87594 21.9399C8.94267 21.9884 9.28332 22.0003 11.9991 22.0003C14.7153 22.0003 15.0551 21.9884 16.1219 21.9399C17.1865 21.8911 17.9141 21.7225 18.5504 21.4752C19.2079 21.2198 19.765 20.8773 20.3207 20.321C20.877 19.7651 21.2186 19.2072 21.4749 18.5496C21.7208 17.9136 21.8895 17.1866 21.9395 16.1224C21.9874 15.0557 21.9999 14.7157 21.9999 11.9997C21.9999 9.28365 21.9874 8.94279 21.9395 7.87606C21.8895 6.81141 21.7208 6.0847 21.4749 5.44882C21.2186 4.79107 20.877 4.23312 20.3207 3.67725C19.7644 3.12097 19.2081 2.77928 18.5497 2.52406C17.9122 2.27675 17.1851 2.1082 16.1204 2.05944C15.0537 2.0109 14.7141 1.99902 11.9972 1.99902H12.0004ZM11.1032 3.80122C11.2774 3.80095 11.4647 3.80103 11.6669 3.80112H11.667L12.0004 3.80122C14.6705 3.80122 14.987 3.8108 16.0414 3.85872C17.0165 3.90331 17.5457 4.06624 17.8982 4.20312C18.3649 4.38438 18.6977 4.60106 19.0475 4.95108C19.3975 5.30111 19.6142 5.63446 19.7958 6.10116C19.9327 6.45326 20.0959 6.98246 20.1402 7.95752C20.1882 9.01175 20.1986 9.32844 20.1986 11.9974C20.1986 14.6663 20.1882 14.983 20.1402 16.0372C20.0957 17.0123 19.9327 17.5415 19.7958 17.8936C19.6146 18.3603 19.3975 18.6926 19.0475 19.0424C18.6974 19.3924 18.3651 19.6091 17.8982 19.7903C17.5461 19.9279 17.0165 20.0904 16.0414 20.135C14.9872 20.1829 14.6705 20.1933 12.0004 20.1933C9.32999 20.1933 9.01351 20.1829 7.95927 20.135C6.98421 20.0899 6.45501 19.927 6.10228 19.7901C5.63559 19.6089 5.30223 19.3922 4.95221 19.0422C4.60219 18.6922 4.38551 18.3596 4.20383 17.8927C4.06695 17.5406 3.90381 17.0114 3.85943 16.0364C3.81151 14.9821 3.80193 14.6654 3.80193 11.9949C3.80193 9.32427 3.81151 9.00925 3.85943 7.95502C3.90402 6.97996 4.06695 6.45076 4.20383 6.09824C4.38509 5.63154 4.60219 5.29819 4.95221 4.94817C5.30223 4.59814 5.63559 4.38146 6.10228 4.19979C6.45481 4.06228 6.98421 3.89977 7.95927 3.85497C8.88183 3.8133 9.23935 3.8008 11.1032 3.79872V3.80122ZM17.3386 5.46174C16.6761 5.46174 16.1385 5.99865 16.1385 6.6614C16.1385 7.32394 16.6761 7.86147 17.3386 7.86147C18.0012 7.86147 18.5387 7.32394 18.5387 6.6614C18.5387 5.99886 18.0012 5.46132 17.3386 5.46132V5.46174ZM6.86462 11.9997C6.86462 9.1635 9.16403 6.86402 12.0002 6.86391C14.8364 6.86391 17.1353 9.16343 17.1353 11.9997C17.1353 14.8359 14.8366 17.1343 12.0004 17.1343C9.16414 17.1343 6.86462 14.8359 6.86462 11.9997ZM15.3339 11.9997C15.3339 10.1585 13.8413 8.66611 12.0004 8.66611C10.1592 8.66611 8.66682 10.1585 8.66682 11.9997C8.66682 13.8406 10.1592 15.3332 12.0004 15.3332C13.8413 15.3332 15.3339 13.8406 15.3339 11.9997Z" fill="white" fill-opacity="0.5"/>
</svg>
