<svg width="25" height="24" viewBox="0 0 25 24" fill="none" xmlns="http://www.w3.org/2000/svg">
<path fill-rule="evenodd" clip-rule="evenodd" d="M10.7297 18.4595C6.18458 18.4595 2.5 14.7749 2.5 10.2297C2.5 5.68458 6.18458 2 10.7297 2C15.2749 2 18.9595 5.68458 18.9595 10.2297C18.9595 12.1957 18.2701 14.0006 17.12 15.416L23.2506 21.5467C23.5831 21.8791 23.5831 22.4182 23.2506 22.7506C22.9182 23.0831 22.3791 23.0831 22.0467 22.7506L15.916 16.62C14.5006 17.7701 12.6957 18.4595 10.7297 18.4595ZM10.7297 16.7568C14.3345 16.7568 17.2568 13.8345 17.2568 10.2297C17.2568 6.62495 14.3345 3.7027 10.7297 3.7027C7.12495 3.7027 4.2027 6.62495 4.2027 10.2297C4.2027 13.8345 7.12495 16.7568 10.7297 16.7568Z" fill="#2A2A2A"/>
</svg>
